<?xml version="1.0" encoding="UTF-8"?>
<svg id="Layer_2" data-name="Layer 2" xmlns="http://www.w3.org/2000/svg" viewBox="0 0 353.7 66.21">
  <defs>
    <style>
      .cls-1 {
        fill: #16a34a;
      }
    </style>
  </defs>
  <g id="Layer_2-2" data-name="Layer 2">
    <g id="logo-group">
      <g id="logo-center">
        <g id="title">
          <g id="path175132">
            <path d="M32.99,26.91c10.22,2.87,21.72,6.2,21.72,19.79,0,11.84-10.12,19.51-25.75,19.51-10.06,0-20.47-3.47-28.33-9.27-.62-.46-.81-1.32-.46-2.01l4.41-8.71c.45-.88,1.58-1.16,2.38-.56,6.59,4.93,15.54,8.35,22.19,8.35,5.8,0,9.24-2.4,9.24-6.47,0-5.36-6.29-7.12-13.57-9.16-10.03-2.77-21.43-5.92-21.43-19.14C3.39,7.59,13.42,0,29.04,0c8.41,0,17.17,2.29,23.91,6.18.72.42.98,1.33.61,2.08l-4.43,9.11c-.4.82-1.39,1.13-2.2.71-6.66-3.45-14.34-5.78-19.37-5.78s-7.96,2.03-7.96,5.46c0,5.18,6.19,6.94,13.27,8.97l.1.18h.02Z"/>
          </g>
          <g id="path175134">
            <path d="M119.75,21.91c0,15.07-9.44,22.38-25.95,22.38h-11.07c-.89,0-1.6.72-1.6,1.6v17.97c0,.89-.72,1.6-1.6,1.6h-12.22c-.89,0-1.6-.72-1.6-1.6V2.34c0-.89.72-1.6,1.6-1.6h26.51c16.51,0,25.95,6.94,25.95,21.18h-.02ZM105.31,22.47c0-7.12-4.42-9.8-12.38-9.8h-10.29c-.89,0-1.6.72-1.6,1.6v16.58c0,.89.72,1.6,1.6,1.6h10.29c7.86,0,12.38-2.77,12.38-9.99h0Z"/>
          </g>
          <g id="path175136">
            <path d="M181.02,55.42v8.63c0,.89-.72,1.6-1.6,1.6h-48.2c-.89,0-1.6-.72-1.6-1.6V2.53c0-.89.72-1.6,1.6-1.6h47.12c.89,0,1.6.72,1.6,1.6v8.63c0,.89-.72,1.6-1.6,1.6h-31.78c-.89,0-1.6.72-1.6,1.6v37.76c0,.88.72,1.6,1.6,1.6l32.87.08c.88,0,1.6.72,1.6,1.6v.02ZM154.86,37.37l1.29-8.63c.12-.79.79-1.37,1.59-1.37h17.26c.89,0,1.6.72,1.6,1.6v8.63c0,.89-.72,1.6-1.6,1.6h-18.55c-.98,0-1.73-.87-1.59-1.84h0Z"/>
          </g>
          <g id="path175138">
            <path d="M206.63,1.41l43.63,61.53c.75,1.06,0,2.53-1.31,2.53h-11.88c-.52,0-1.01-.26-1.32-.69l-26.09-37.31c-.9-1.29-2.92-.65-2.92.92v35.47c0,.89-.72,1.6-1.6,1.6h-11.14c-.89,0-1.6-.72-1.6-1.6V2.34c0-.89.72-1.6,1.6-1.6h11.33c.52,0,1.01.25,1.31.68h0Z"/>
            <path class="cls-1" d="M252.05,2.34v45.45c0,1.32-1.51,2.08-2.56,1.3-7.53-5.62-10.78-14.21-11.62-16.86-.05-.15-.07-.31-.07-.47V2.35c0-.89.72-1.6,1.6-1.6h11.04c.89,0,1.6.72,1.6,1.6h0Z"/>
          </g>
          <g id="path175140">
            <path d="M293.15.74c20.64,0,34.5,13.04,34.5,32.37s-14.45,32.37-35.09,32.37h-25.43c-.89,0-1.6-.72-1.6-1.6V2.34c0-.89.72-1.6,1.6-1.6h26.11-.1.01ZM293.64,53.45c10.81,0,18.38-8.32,18.38-20.25s-7.86-20.44-19.17-20.44h-10.39c-.89,0-1.6.72-1.6,1.6v37.39c0,.89.72,1.6,1.6,1.6h11.08l.1.09h0Z"/>
          </g>
          <g id="path175142">
            <path d="M338.28,63.87V2.34c0-.89.72-1.6,1.6-1.6h12.22c.89,0,1.6.72,1.6,1.6v61.53c0,.89-.72,1.6-1.6,1.6h-12.22c-.89,0-1.6-.72-1.6-1.6Z"/>
          </g>
        </g>
      </g>
    </g>
  </g>
</svg>